<?xml version="1.0" encoding="utf-8"?>
<!-- Generator: Adobe Illustrator 24.1.2, SVG Export Plug-In . SVG Version: 6.00 Build 0)  -->
<svg version="1.1" id="Layer_1" xmlns="http://www.w3.org/2000/svg" xmlns:xlink="http://www.w3.org/1999/xlink" x="0px" y="0px"
	 viewBox="0 0 56.7 56.7" style="enable-background:new 0 0 56.7 56.7;" xml:space="preserve">
<style type="text/css">
	.st0{fill:#FFFFFF;}
</style>
<path d="M28.3,3.7c-13.6,0-24.6,11-24.6,24.6c0,13.6,11,24.6,24.6,24.6C41.9,53,53,41.9,53,28.3C53,14.7,41.9,3.7,28.3,3.7z"/>
<g>
	<path class="st0" d="M40.9,23.5v-8.9H15.7v8.8l-1.1,0.5v14.7c0,1.9,1.5,3.4,3.4,3.4h20.6c1.6,0,3.4-1.2,3.4-2.3l0-15.8L40.9,23.5z
		 M39.8,26.5l0,10.5l-5.9-5.7L39.8,26.5z M38.7,16.9v7.5l-9.3,7.7c-0.5,0.4-1.2,0.5-1.8-0.1L18,24.3v-7.4H38.7z M16.9,37.2V26.3
		l6,4.9L16.9,37.2z M18,39.8c-0.2,0-0.3,0-0.4-0.1l7.1-7l1.3,1.1c0.7,0.6,1.5,1,2.5,1s1.8-0.4,2.4-0.9l1.3-1.1l7.1,6.9
		c-0.2,0.1-0.4,0.1-0.6,0.1H18z"/>
	<rect x="21.5" y="19.2" class="st0" width="13.7" height="2.3"/>
	<rect x="21.5" y="22.6" class="st0" width="10.3" height="2.3"/>
</g>
</svg>
