<?xml version="1.0" encoding="utf-8"?>
<!-- Generator: Adobe Illustrator 24.1.2, SVG Export Plug-In . SVG Version: 6.00 Build 0)  -->
<svg version="1.1" id="圖層_1" xmlns="http://www.w3.org/2000/svg" xmlns:xlink="http://www.w3.org/1999/xlink" x="0px" y="0px"
	 viewBox="0 0 42.2 38.2" style="enable-background:new 0 0 42.2 38.2;" xml:space="preserve">
<style type="text/css">
	.st0{fill:#2992AD;}
</style>
<g>
	<path class="st0" d="M19.1,0.5C9,0.5,0.8,8.7,0.8,18.8C0.8,29,9,37.2,19.1,37.2c5,0,9.6-2,12.9-5.3L31.3,31
		c-1.1,0.4-2.3,0.6-3.5,0.6c-0.1,0-0.2,0-0.4,0c-0.1,0-0.1,0.1-0.2,0.1c0,0,0-0.1,0.1-0.1c-1.1-0.1-2.2-0.3-3.2-0.7
		c-1,1.4-2.2,2.4-3.4,2.9v-5.2c-1.7-1.8-2.7-4.1-2.7-6.8c0-2.6,1-5,2.7-6.8v-0.8h0.9c1.7-1.4,3.9-2.2,6.2-2.2c4.8,0,8.8,3.4,9.6,7.9
		c0-0.4,0.1-0.7,0.1-1.1C37.5,8.7,29.2,0.5,19.1,0.5z M11,5.9c-0.9,1.5-1.7,3.3-2.2,5.3H5.9C7.2,9.1,8.9,7.2,11,5.9z M3.9,18.8
		c0-1.6,0.2-3.1,0.7-4.6h3.6c-0.2,1.5-0.4,3-0.4,4.6c0,1.6,0.1,3.1,0.4,4.6H4.6C4.1,22,3.9,20.4,3.9,18.8z M5.9,26.5h2.9
		c0.5,2,1.3,3.8,2.2,5.3C8.9,30.5,7.2,28.6,5.9,26.5z M17.6,33.8c-2.4-0.9-4.4-3.6-5.6-7.4h5.6V33.8z M17.6,23.4h-6.3
		c-0.3-1.5-0.4-3-0.4-4.6c0-1.6,0.1-3.1,0.4-4.6h6.3V23.4z M17.6,11.2H12c1.2-3.7,3.2-6.5,5.6-7.4V11.2z M20.7,11.2V3.9
		c2.4,0.9,4.4,3.6,5.6,7.4H20.7z M29.5,11.2c-0.5-2-1.3-3.8-2.2-5.3c2.1,1.3,3.9,3.1,5.1,5.3H29.5z"/>
	<path class="st0" d="M35.1,26.5l-0.3,0.3l-0.2-0.2c1-1.4,1.6-3.1,1.6-4.8c0-4.6-3.7-8.3-8.2-8.3c-4.6,0-8.3,3.7-8.3,8.2
		c0,4.6,3.7,8.3,8.2,8.3c1.7,0,3.4-0.5,4.8-1.5l0.2,0.2l-0.4,0.4l6.5,6.6l2.6-2.6L35.1,26.5z M33.5,21.8c0,3.1-2.5,5.6-5.6,5.6
		s-5.6-2.5-5.6-5.6c0-3.1,2.5-5.6,5.6-5.6S33.5,18.7,33.5,21.8z"/>
</g>
</svg>
